<?xml version="1.0" encoding="iso-8859-1"?>
<!-- Uploaded to: SVG Repo, www.svgrepo.com, Generator: SVG Repo Mixer Tools -->
<svg version="1.1" id="Layer_1" xmlns="http://www.w3.org/2000/svg" xmlns:xlink="http://www.w3.org/1999/xlink" 
	 viewBox="0 0 512 512" xml:space="preserve">
<rect x="28.352" y="415.085" style="fill:#C9C9C9;" width="31.944" height="63.92"/>
<rect x="80.24" y="378.557" style="fill:#E21B1B;" width="31.944" height="100.448"/>
<rect x="132.168" y="337.437" style="fill:#C9C9C9;" width="31.944" height="141.536"/>
<rect x="184.08" y="296.397" style="fill:#E21B1B;" width="31.944" height="182.624"/>
<rect x="235.984" y="268.981" style="fill:#C9C9C9;" width="31.944" height="210"/>
<path d="M218.24,211.077l-35.896,5.2l8.192,10.4L0,378.437c0.288,0.104,7.056,8.136,7.056,8.136L196.6,234.413l8.192,10.4
	l13.448-33.76V211.077z"/>
<g>
	<polygon style="fill:#999999;" points="9.456,297.853 1.456,297.853 1.456,79.013 308.656,79.013 308.656,87.013 9.456,87.013 	"/>
	<circle style="fill:#999999;" cx="42.656" cy="113.789" r="10.848"/>
	<circle style="fill:#999999;" cx="81.376" cy="113.789" r="10.848"/>
	<circle style="fill:#999999;" cx="120.08" cy="113.789" r="10.848"/>
	<rect x="5.456" y="139.997" style="fill:#999999;" width="284.296" height="8"/>
	<polygon style="fill:#999999;" points="416.712,394.917 322.64,394.917 322.64,386.917 408.712,386.917 408.712,274.605 
		416.712,274.605 	"/>
</g>
<path style="fill:#E21B1B;" d="M383.368,32.373c-71.04,0-128.632,57.592-128.632,128.632s57.592,128.632,128.632,128.632
	c71.008,0,128.584-57.536,128.632-128.544H383.368V32.373z"/>
<g>
	<path style="fill:#C9C9C9;" d="M474.4,70.093l-91.032,91H512v-0.096C512.048,126.909,498.52,94.197,474.4,70.093z"/>
	<path style="fill:#C9C9C9;" d="M383.368,32.373v128.72l91.032-91C450.288,45.901,417.528,32.325,383.368,32.373z"/>
</g>
<path style="fill:#AAAAAA;" d="M474.4,251.821l-91.032-91.008H512v0.096C512.056,195.013,498.52,227.725,474.4,251.821z"/>
<path style="fill:#939393;" d="M383.368,289.573v-128.76l91.032,91.008C450.296,276.029,417.528,289.621,383.368,289.573z"/>
<polygon points="380.728,460.893 461.752,379.877 363.672,362.813 "/>
<rect x="418.686" y="391.354" transform="matrix(0.7071 -0.7071 0.7071 0.7071 -179.6571 436.8317)" width="37.576" height="87.855"/>
</svg>